<svg xmlns="http://www.w3.org/2000/svg" viewBox="0 0 1400 900" role="img" aria-labelledby="title">
  <title id="title">Coffee shop wall and table</title>
  <defs>
    <linearGradient id="wall" x1="0" x2="1">
      <stop offset="0" stop-color="#f5f5f5"/>
      <stop offset=".55" stop-color="#d7ccc8"/>
      <stop offset="1" stop-color="#fffaf7"/>
    </linearGradient>
  </defs>
  <rect width="1400" height="900" fill="url(#wall)"/>
  <rect y="540" width="1400" height="360" fill="#6d4c41" opacity=".32"/>
  <g opacity=".16" fill="#4e342e">
    <rect x="120" y="130" width="270" height="260" rx="8"/>
    <rect x="1010" y="120" width="250" height="300" rx="8"/>
    <rect x="470" y="90" width="390" height="220" rx="8"/>
  </g>
  <g transform="translate(520 360)">
    <ellipse cx="182" cy="293" rx="360" ry="50" fill="#4e342e" opacity=".22"/>
    <rect x="-80" y="220" width="520" height="56" rx="12" fill="#4e342e"/>
    <path d="M42 105h278l-32 138H72z" fill="#fffaf7"/>
    <path d="M76 105h211l-24 106H101z" fill="#d7ccc8"/>
    <path d="M300 126h58c36 0 62 25 62 59s-26 60-62 60h-70l10-45h59c10 0 18-6 18-15s-8-15-18-15h-65z" fill="#fffaf7"/>
    <path d="M130 74c-28-45 42-65 18-108M211 74c-27-45 41-65 18-108" fill="none" stroke="#6d4c41" stroke-width="13" stroke-linecap="round" opacity=".42"/>
  </g>
</svg>
