<svg xmlns="http://www.w3.org/2000/svg" viewBox="0 0 1600 1000" role="img" aria-labelledby="title desc">
  <title id="title">Warm coffee shop interior</title>
  <desc id="desc">A cozy cafe counter with coffee cups, lights, and seating.</desc>
  <defs>
    <linearGradient id="bg" x1="0" x2="1" y1="0" y2="1">
      <stop offset="0" stop-color="#2f1d18"/>
      <stop offset="0.48" stop-color="#6d4c41"/>
      <stop offset="1" stop-color="#d7ccc8"/>
    </linearGradient>
    <radialGradient id="glow" cx="65%" cy="22%" r="55%">
      <stop offset="0" stop-color="#fff3d8" stop-opacity=".75"/>
      <stop offset="1" stop-color="#fff3d8" stop-opacity="0"/>
    </radialGradient>
  </defs>
  <rect width="1600" height="1000" fill="url(#bg)"/>
  <rect width="1600" height="1000" fill="url(#glow)"/>
  <g opacity=".34">
    <circle cx="315" cy="145" r="52" fill="#f5d8a8"/>
    <circle cx="735" cy="116" r="45" fill="#f5d8a8"/>
    <circle cx="1125" cy="152" r="58" fill="#f5d8a8"/>
    <path d="M315 0v92M735 0v73M1125 0v95" stroke="#f5d8a8" stroke-width="8"/>
  </g>
  <path d="M0 642h1600v358H0z" fill="#2a1814" opacity=".7"/>
  <path d="M180 665h950c74 0 134 60 134 134v201H180z" fill="#4e342e"/>
  <path d="M254 724h320v276H254z" fill="#d7ccc8" opacity=".16"/>
  <path d="M690 724h320v276H690z" fill="#d7ccc8" opacity=".16"/>
  <g transform="translate(1010 478)">
    <ellipse cx="156" cy="260" rx="230" ry="42" fill="#21120f" opacity=".45"/>
    <path d="M82 115h285l-34 162H116z" fill="#fffaf7"/>
    <path d="M110 115h229l-28 132H138z" fill="#d7ccc8"/>
    <path d="M349 143h68c38 0 66 28 66 64s-28 64-66 64h-84l12-53h72c9 0 18-6 18-14s-9-15-18-15h-80z" fill="#fffaf7"/>
    <rect x="61" y="74" width="326" height="47" rx="23" fill="#4e342e"/>
    <path d="M150 54c-34-55 53-77 21-126M239 54c-35-53 54-81 22-132" fill="none" stroke="#fff3d8" stroke-width="15" stroke-linecap="round" opacity=".78"/>
  </g>
  <g transform="translate(116 520)">
    <rect x="0" y="54" width="392" height="64" rx="12" fill="#d7ccc8"/>
    <rect x="45" y="118" width="54" height="254" fill="#2f1d18"/>
    <rect x="288" y="118" width="54" height="254" fill="#2f1d18"/>
    <circle cx="106" cy="0" r="55" fill="#fffaf7"/>
    <circle cx="106" cy="0" r="30" fill="#6d4c41"/>
    <rect x="214" y="-27" width="100" height="70" rx="12" fill="#fffaf7"/>
  </g>
</svg>
