<svg xmlns="http://www.w3.org/2000/svg" viewBox="0 0 800 640" role="img" aria-labelledby="title">
  <title id="title">Cookies and pastries placeholder</title>
  <rect width="800" height="640" fill="#fffaf7"/>
  <circle cx="112" cy="120" r="160" fill="#d7ccc8" opacity=".72"/>
  <circle cx="690" cy="540" r="180" fill="#6d4c41" opacity=".16"/>
  <g transform="translate(160 160)">
    <ellipse cx="250" cy="320" rx="285" ry="45" fill="#4e342e" opacity=".18"/>
    <path d="M68 210c20-90 110-152 220-152s199 62 220 152H68z" fill="#d5964c"/>
    <path d="M68 210h440v84c0 28-23 50-50 50H118c-28 0-50-22-50-50z" fill="#b87534"/>
    <path d="M96 208c52-30 95-30 147 0 54-30 97-30 151 0 39-24 77-29 114-15" fill="none" stroke="#fff3d8" stroke-width="26" stroke-linecap="round"/>
    <circle cx="134" cy="92" r="54" fill="#8a4d2a"/>
    <circle cx="114" cy="77" r="9" fill="#3b2118"/>
    <circle cx="151" cy="104" r="8" fill="#3b2118"/>
    <circle cx="312" cy="72" r="38" fill="#fffaf7"/>
  </g>
</svg>
